<mxfile host="app.diagrams.net" agent="Mozilla/5.0 (Macintosh; Intel Mac OS X 10_15_7) AppleWebKit/537.36 (KHTML, like Gecko) Chrome/127.0.0.0 Safari/537.36" version="24.7.7">
  <diagram name="第 1 页" id="0FhaNs7djKtudAVwP0_1">
    <mxGraphModel dx="984" dy="569" grid="0" gridSize="10" guides="1" tooltips="1" connect="1" arrows="1" fold="1" page="0" pageScale="1" pageWidth="827" pageHeight="1169" background="none" math="0" shadow="0">
      <root>
        <mxCell id="0" />
        <mxCell id="1" parent="0" />
        <mxCell id="e5JmHoY65v8U-HojpaXv-1" value="Actor" style="shape=umlActor;verticalLabelPosition=bottom;verticalAlign=top;html=1;fontStyle=1" vertex="1" parent="1">
          <mxGeometry x="80" y="100" width="30" height="60" as="geometry" />
        </mxCell>
        <mxCell id="e5JmHoY65v8U-HojpaXv-4" value="user" style="shape=umlLifeline;perimeter=lifelinePerimeter;whiteSpace=wrap;html=1;container=1;dropTarget=0;collapsible=0;recursiveResize=0;outlineConnect=0;portConstraint=eastwest;newEdgeStyle={&quot;curved&quot;:0,&quot;rounded&quot;:0};fontStyle=1" vertex="1" parent="1">
          <mxGeometry x="45" y="200" width="100" height="300" as="geometry" />
        </mxCell>
        <mxCell id="e5JmHoY65v8U-HojpaXv-5" value="L1StandardBridge" style="shape=umlLifeline;perimeter=lifelinePerimeter;whiteSpace=wrap;html=1;container=1;dropTarget=0;collapsible=0;recursiveResize=0;outlineConnect=0;portConstraint=eastwest;newEdgeStyle={&quot;curved&quot;:0,&quot;rounded&quot;:0};fontStyle=1" vertex="1" parent="1">
          <mxGeometry x="200" y="200" width="100" height="300" as="geometry" />
        </mxCell>
        <mxCell id="e5JmHoY65v8U-HojpaXv-7" value="" style="html=1;points=[[0,0,0,0,5],[0,1,0,0,-5],[1,0,0,0,5],[1,1,0,0,-5]];perimeter=orthogonalPerimeter;outlineConnect=0;targetShapes=umlLifeline;portConstraint=eastwest;newEdgeStyle={&quot;curved&quot;:0,&quot;rounded&quot;:0};fontStyle=1" vertex="1" parent="e5JmHoY65v8U-HojpaXv-5">
          <mxGeometry x="45" y="137" width="10" height="40" as="geometry" />
        </mxCell>
        <mxCell id="e5JmHoY65v8U-HojpaXv-8" value="&lt;div style=&quot;font-family: Menlo, Monaco, &amp;quot;Courier New&amp;quot;, monospace; font-size: 12px; line-height: 18px; white-space-collapse: preserve;&quot;&gt;_initiateETHDeposit&lt;/div&gt;" style="html=1;align=left;spacingLeft=2;endArrow=block;rounded=0;edgeStyle=orthogonalEdgeStyle;curved=0;rounded=0;fontStyle=1" edge="1" target="e5JmHoY65v8U-HojpaXv-7" parent="e5JmHoY65v8U-HojpaXv-5">
          <mxGeometry relative="1" as="geometry">
            <mxPoint x="50" y="117" as="sourcePoint" />
            <Array as="points">
              <mxPoint x="80" y="147" />
            </Array>
          </mxGeometry>
        </mxCell>
        <mxCell id="e5JmHoY65v8U-HojpaXv-9" value="" style="html=1;points=[[0,0,0,0,5],[0,1,0,0,-5],[1,0,0,0,5],[1,1,0,0,-5]];perimeter=orthogonalPerimeter;outlineConnect=0;targetShapes=umlLifeline;portConstraint=eastwest;newEdgeStyle={&quot;curved&quot;:0,&quot;rounded&quot;:0};fontStyle=1" vertex="1" parent="e5JmHoY65v8U-HojpaXv-5">
          <mxGeometry x="45" y="229" width="10" height="40" as="geometry" />
        </mxCell>
        <mxCell id="e5JmHoY65v8U-HojpaXv-10" value="&lt;div style=&quot;font-family: Menlo, Monaco, &amp;quot;Courier New&amp;quot;, monospace; font-size: 12px; line-height: 18px; white-space-collapse: preserve;&quot;&gt;_initiateBridgeETH&lt;/div&gt;" style="html=1;align=left;spacingLeft=2;endArrow=block;rounded=0;edgeStyle=orthogonalEdgeStyle;curved=0;rounded=0;fontStyle=1" edge="1" target="e5JmHoY65v8U-HojpaXv-9" parent="e5JmHoY65v8U-HojpaXv-5">
          <mxGeometry relative="1" as="geometry">
            <mxPoint x="50" y="209" as="sourcePoint" />
            <Array as="points">
              <mxPoint x="80" y="239" />
            </Array>
          </mxGeometry>
        </mxCell>
        <mxCell id="e5JmHoY65v8U-HojpaXv-6" value="depositETH" style="html=1;verticalAlign=bottom;endArrow=block;curved=0;rounded=0;fontStyle=1" edge="1" parent="1" target="e5JmHoY65v8U-HojpaXv-5">
          <mxGeometry width="80" relative="1" as="geometry">
            <mxPoint x="100" y="290" as="sourcePoint" />
            <mxPoint x="180" y="290" as="targetPoint" />
          </mxGeometry>
        </mxCell>
        <mxCell id="e5JmHoY65v8U-HojpaXv-16" value="&lt;div style=&quot;font-family: Menlo, Monaco, &amp;quot;Courier New&amp;quot;, monospace; line-height: 18px; white-space: pre;&quot;&gt;&lt;div style=&quot;line-height: 18px;&quot;&gt;L1CrossDomainMessenger&lt;/div&gt;&lt;/div&gt;" style="shape=umlLifeline;perimeter=lifelinePerimeter;whiteSpace=wrap;html=1;container=1;dropTarget=0;collapsible=0;recursiveResize=0;outlineConnect=0;portConstraint=eastwest;newEdgeStyle={&quot;curved&quot;:0,&quot;rounded&quot;:0};fontStyle=1" vertex="1" parent="1">
          <mxGeometry x="435" y="200" width="157" height="455" as="geometry" />
        </mxCell>
        <mxCell id="e5JmHoY65v8U-HojpaXv-17" style="rounded=0;orthogonalLoop=1;jettySize=auto;html=1;exitX=1;exitY=1;exitDx=0;exitDy=-5;exitPerimeter=0;fontStyle=1" edge="1" parent="1" source="e5JmHoY65v8U-HojpaXv-9" target="e5JmHoY65v8U-HojpaXv-16">
          <mxGeometry relative="1" as="geometry" />
        </mxCell>
        <mxCell id="e5JmHoY65v8U-HojpaXv-18" value="sendMessage" style="edgeLabel;html=1;align=center;verticalAlign=middle;resizable=0;points=[];fontStyle=1" vertex="1" connectable="0" parent="e5JmHoY65v8U-HojpaXv-17">
          <mxGeometry x="-0.0891" relative="1" as="geometry">
            <mxPoint as="offset" />
          </mxGeometry>
        </mxCell>
        <mxCell id="e5JmHoY65v8U-HojpaXv-24" style="rounded=0;orthogonalLoop=1;jettySize=auto;html=1;exitX=1;exitY=1;exitDx=0;exitDy=-5;exitPerimeter=0;fontStyle=1" edge="1" parent="1" source="e5JmHoY65v8U-HojpaXv-19" target="e5JmHoY65v8U-HojpaXv-23">
          <mxGeometry relative="1" as="geometry" />
        </mxCell>
        <mxCell id="e5JmHoY65v8U-HojpaXv-25" value="&lt;div style=&quot;font-family: Menlo, Monaco, &amp;quot;Courier New&amp;quot;, monospace; font-size: 12px; line-height: 18px; white-space-collapse: preserve;&quot;&gt;depositTransaction&lt;/div&gt;" style="edgeLabel;html=1;align=center;verticalAlign=middle;resizable=0;points=[];fontStyle=1" vertex="1" connectable="0" parent="e5JmHoY65v8U-HojpaXv-24">
          <mxGeometry x="-0.1448" y="2" relative="1" as="geometry">
            <mxPoint as="offset" />
          </mxGeometry>
        </mxCell>
        <mxCell id="e5JmHoY65v8U-HojpaXv-19" value="" style="html=1;points=[[0,0,0,0,5],[0,1,0,0,-5],[1,0,0,0,5],[1,1,0,0,-5]];perimeter=orthogonalPerimeter;outlineConnect=0;targetShapes=umlLifeline;portConstraint=eastwest;newEdgeStyle={&quot;curved&quot;:0,&quot;rounded&quot;:0};fontStyle=1" vertex="1" parent="1">
          <mxGeometry x="509" y="487" width="10" height="40" as="geometry" />
        </mxCell>
        <mxCell id="e5JmHoY65v8U-HojpaXv-20" value="&lt;div style=&quot;font-family: Menlo, Monaco, &amp;quot;Courier New&amp;quot;, monospace; font-size: 12px; line-height: 18px; white-space-collapse: preserve;&quot;&gt;_sendMessage(L2StandardBridge,L2CrossDomainMessenger)&lt;/div&gt;" style="html=1;align=left;spacingLeft=2;endArrow=block;rounded=0;edgeStyle=orthogonalEdgeStyle;curved=0;rounded=0;fontStyle=1" edge="1" target="e5JmHoY65v8U-HojpaXv-19" parent="1">
          <mxGeometry relative="1" as="geometry">
            <mxPoint x="514" y="467" as="sourcePoint" />
            <Array as="points">
              <mxPoint x="544" y="497" />
            </Array>
          </mxGeometry>
        </mxCell>
        <mxCell id="e5JmHoY65v8U-HojpaXv-23" value="&lt;div style=&quot;font-family: Menlo, Monaco, &amp;quot;Courier New&amp;quot;, monospace; line-height: 18px; white-space: pre;&quot;&gt;OptimismPortal&lt;/div&gt;" style="shape=umlLifeline;perimeter=lifelinePerimeter;whiteSpace=wrap;html=1;container=1;dropTarget=0;collapsible=0;recursiveResize=0;outlineConnect=0;portConstraint=eastwest;newEdgeStyle={&quot;curved&quot;:0,&quot;rounded&quot;:0};fontStyle=1" vertex="1" parent="1">
          <mxGeometry x="690" y="200" width="108" height="436" as="geometry" />
        </mxCell>
        <mxCell id="e5JmHoY65v8U-HojpaXv-28" value="" style="html=1;points=[[0,0,0,0,5],[0,1,0,0,-5],[1,0,0,0,5],[1,1,0,0,-5]];perimeter=orthogonalPerimeter;outlineConnect=0;targetShapes=umlLifeline;portConstraint=eastwest;newEdgeStyle={&quot;curved&quot;:0,&quot;rounded&quot;:0};fontStyle=1" vertex="1" parent="e5JmHoY65v8U-HojpaXv-23">
          <mxGeometry x="50" y="339" width="10" height="40" as="geometry" />
        </mxCell>
        <mxCell id="e5JmHoY65v8U-HojpaXv-29" value="&lt;div style=&quot;font-family: Menlo, Monaco, &amp;quot;Courier New&amp;quot;, monospace; font-size: 12px; line-height: 18px; white-space-collapse: preserve;&quot;&gt;&lt;br&gt;&lt;/div&gt;" style="html=1;align=left;spacingLeft=2;endArrow=block;rounded=0;edgeStyle=orthogonalEdgeStyle;curved=0;rounded=0;fontStyle=1" edge="1" target="e5JmHoY65v8U-HojpaXv-28" parent="e5JmHoY65v8U-HojpaXv-23">
          <mxGeometry relative="1" as="geometry">
            <mxPoint x="55" y="319" as="sourcePoint" />
            <Array as="points">
              <mxPoint x="85" y="349" />
            </Array>
          </mxGeometry>
        </mxCell>
        <mxCell id="e5JmHoY65v8U-HojpaXv-30" value="TransactionDeposited" style="text;whiteSpace=wrap;html=1;fontStyle=1" vertex="1" parent="1">
          <mxGeometry x="775" y="519" width="144" height="36" as="geometry" />
        </mxCell>
        <mxCell id="e5JmHoY65v8U-HojpaXv-34" value="Sequencer" style="shape=umlLifeline;perimeter=lifelinePerimeter;whiteSpace=wrap;html=1;container=1;dropTarget=0;collapsible=0;recursiveResize=0;outlineConnect=0;portConstraint=eastwest;newEdgeStyle={&quot;curved&quot;:0,&quot;rounded&quot;:0};fontStyle=1" vertex="1" parent="1">
          <mxGeometry x="255" y="709" width="98" height="428" as="geometry" />
        </mxCell>
        <mxCell id="e5JmHoY65v8U-HojpaXv-35" value="loop" style="shape=umlFrame;whiteSpace=wrap;html=1;pointerEvents=0;fontStyle=1" vertex="1" parent="1">
          <mxGeometry x="305" y="783" width="132" height="95" as="geometry" />
        </mxCell>
        <mxCell id="e5JmHoY65v8U-HojpaXv-36" value="listen&amp;nbsp;&lt;div&gt;TransactionDeposit&lt;/div&gt;&lt;div&gt;&amp;nbsp;event&lt;/div&gt;" style="text;html=1;align=center;verticalAlign=middle;resizable=0;points=[];autosize=1;strokeColor=none;fillColor=none;fontStyle=1" vertex="1" parent="1">
          <mxGeometry x="302" y="817" width="121" height="55" as="geometry" />
        </mxCell>
        <mxCell id="e5JmHoY65v8U-HojpaXv-37" value="&lt;div style=&quot;font-family: Menlo, Monaco, &amp;quot;Courier New&amp;quot;, monospace; line-height: 18px; white-space: pre;&quot;&gt;L2CrossDomainMessenger&lt;/div&gt;" style="shape=umlLifeline;perimeter=lifelinePerimeter;whiteSpace=wrap;html=1;container=1;dropTarget=0;collapsible=0;recursiveResize=0;outlineConnect=0;portConstraint=eastwest;newEdgeStyle={&quot;curved&quot;:0,&quot;rounded&quot;:0};fontStyle=1" vertex="1" parent="1">
          <mxGeometry x="487" y="707" width="164" height="449" as="geometry" />
        </mxCell>
        <mxCell id="e5JmHoY65v8U-HojpaXv-41" value="" style="html=1;points=[[0,0,0,0,5],[0,1,0,0,-5],[1,0,0,0,5],[1,1,0,0,-5]];perimeter=orthogonalPerimeter;outlineConnect=0;targetShapes=umlLifeline;portConstraint=eastwest;newEdgeStyle={&quot;curved&quot;:0,&quot;rounded&quot;:0};fontStyle=1" vertex="1" parent="e5JmHoY65v8U-HojpaXv-37">
          <mxGeometry x="77" y="317" width="10" height="40" as="geometry" />
        </mxCell>
        <mxCell id="e5JmHoY65v8U-HojpaXv-42" value="realyMessage" style="html=1;align=left;spacingLeft=2;endArrow=block;rounded=0;edgeStyle=orthogonalEdgeStyle;curved=0;rounded=0;fontStyle=1" edge="1" target="e5JmHoY65v8U-HojpaXv-41" parent="e5JmHoY65v8U-HojpaXv-37">
          <mxGeometry relative="1" as="geometry">
            <mxPoint x="82" y="297" as="sourcePoint" />
            <Array as="points">
              <mxPoint x="112" y="327" />
            </Array>
          </mxGeometry>
        </mxCell>
        <mxCell id="e5JmHoY65v8U-HojpaXv-38" value="dispatch" style="html=1;verticalAlign=bottom;endArrow=block;curved=0;rounded=0;fontStyle=1" edge="1" parent="1" target="e5JmHoY65v8U-HojpaXv-37">
          <mxGeometry width="80" relative="1" as="geometry">
            <mxPoint x="305" y="986" as="sourcePoint" />
            <mxPoint x="385" y="986" as="targetPoint" />
          </mxGeometry>
        </mxCell>
        <mxCell id="e5JmHoY65v8U-HojpaXv-43" value="&lt;span&gt;L2StandardBridge&lt;/span&gt;" style="shape=umlLifeline;perimeter=lifelinePerimeter;whiteSpace=wrap;html=1;container=1;dropTarget=0;collapsible=0;recursiveResize=0;outlineConnect=0;portConstraint=eastwest;newEdgeStyle={&quot;curved&quot;:0,&quot;rounded&quot;:0};fontStyle=1" vertex="1" parent="1">
          <mxGeometry x="710" y="707" width="108" height="463" as="geometry" />
        </mxCell>
        <mxCell id="e5JmHoY65v8U-HojpaXv-46" value="" style="html=1;points=[[0,0,0,0,5],[0,1,0,0,-5],[1,0,0,0,5],[1,1,0,0,-5]];perimeter=orthogonalPerimeter;outlineConnect=0;targetShapes=umlLifeline;portConstraint=eastwest;newEdgeStyle={&quot;curved&quot;:0,&quot;rounded&quot;:0};" vertex="1" parent="e5JmHoY65v8U-HojpaXv-43">
          <mxGeometry x="53" y="329" width="10" height="80" as="geometry" />
        </mxCell>
        <mxCell id="e5JmHoY65v8U-HojpaXv-44" style="rounded=0;orthogonalLoop=1;jettySize=auto;html=1;exitX=1;exitY=1;exitDx=0;exitDy=-5;exitPerimeter=0;" edge="1" parent="1" source="e5JmHoY65v8U-HojpaXv-41" target="e5JmHoY65v8U-HojpaXv-43">
          <mxGeometry relative="1" as="geometry" />
        </mxCell>
        <mxCell id="e5JmHoY65v8U-HojpaXv-45" value="&lt;div style=&quot;font-family: Menlo, Monaco, &amp;quot;Courier New&amp;quot;, monospace; font-size: 12px; line-height: 18px; white-space-collapse: preserve;&quot;&gt;&lt;b&gt;finalizeBridgeETH&lt;/b&gt;&lt;/div&gt;" style="edgeLabel;html=1;align=center;verticalAlign=middle;resizable=0;points=[];" vertex="1" connectable="0" parent="e5JmHoY65v8U-HojpaXv-44">
          <mxGeometry x="0.0765" y="1" relative="1" as="geometry">
            <mxPoint as="offset" />
          </mxGeometry>
        </mxCell>
        <mxCell id="e5JmHoY65v8U-HojpaXv-47" value="&lt;b&gt;only&lt;/b&gt;&lt;div&gt;&lt;b&gt;L1StandardBridge trigger&lt;/b&gt;&lt;/div&gt;" style="text;html=1;align=center;verticalAlign=middle;resizable=0;points=[];autosize=1;strokeColor=none;fillColor=none;" vertex="1" parent="1">
          <mxGeometry x="1505" y="532" width="163" height="41" as="geometry" />
        </mxCell>
      </root>
    </mxGraphModel>
  </diagram>
</mxfile>
